<?xml version="1.0" encoding="UTF-8"?>
<svg id="Layer_2" data-name="Layer 2" xmlns="http://www.w3.org/2000/svg" viewBox="0 0 38.01 38.06">
  <defs>
    <style>
      .cls-1 {
        fill: #fdfffd;
      }
    </style>
  </defs>
  <g id="Layer_1-2" data-name="Layer 1">
    <g>
      <path class="cls-1" d="M37.83,21.6c.04-.26.1-.86.14-1.42.03-.45.03-.88.03-1.09,0-1.26-.11-2.45-.35-3.73-.15-.81-.38-1.63-.65-2.44-.5-1.49-1.21-2.96-2.08-4.28-.5-.76-1.21-1.69-1.85-2.35,0,0-.9-1.15-2.46-2.32-1.14-.86-2.6-1.79-4.19-2.46s-3.29-1.15-4.99-1.35c-.99-.12-2.01-.18-3.03-.15-1.19.03-2.38.17-3.56.44-.82.19-1.65.43-2.47.73-.19.07-.36.13-.54.21l.27.44s4.43-2.42,10.03-.84c2.66.75,5.16,2.23,7.04,4.4,3.16,3.65,4.5,8.82,4.62,13.44,0,.13-.02,1.17-.02,1.7h-16.41s0,1.09,0,1.09c0,0,20.46.02,20.47,0Z"/>
      <path class="cls-1" d="M.05,20.53c-.15-2.1.04-4.2.52-6.28l.1-.36.09-.31.15-.48.23-.66.42-1.07.64-1.28s.48-.88.49-.88c.4-.73.91-1.42,1.48-2.03v.31s.23,13.05.23,13.05l7.55-.05v1.12s-7.54-.02-7.53.01c0,.09.02,1.2.21,2.15.62,3.03,2.23,5.5,4.24,7.86.91,1.07,1.96,1.99,3.08,2.83v2.23s-1.58-.65-2.61-1.28c0,0-1.84-1.16-2.8-2.01-2.98-2.67-5.13-6.14-6.04-10.04-.22-.95-.36-1.9-.43-2.85Z"/>
      <path class="cls-1" d="M17.42,38.01v-1.26s1.72.34,3.49.18c3.41-.31,6.93-1.98,9-4.79,0,0,.25-.3.56-.72.2-.27.4-.59.59-.88.31-.46.52-.88.56-.99h3.2s-.41.66-1.13,1.53c-.19.23-.4.48-.63.73-.89.97-2.1,2.09-3.41,2.96,0,0-.63.43-1.48.91-.68.38-1.5.78-2.23,1.06,0,0-3.44,1.64-8.53,1.27Z"/>
    </g>
  </g>
</svg>